<?xml version="1.0" encoding="UTF-8" standalone="no"?>
<!-- Created with Inkscape (http://www.inkscape.org/) -->

<svg
   xmlns:dc="http://purl.org/dc/elements/1.1/"
   xmlns:cc="http://creativecommons.org/ns#"
   xmlns:rdf="http://www.w3.org/1999/02/22-rdf-syntax-ns#"
   xmlns:svg="http://www.w3.org/2000/svg"
   xmlns="http://www.w3.org/2000/svg"
   xmlns:xlink="http://www.w3.org/1999/xlink"
   xmlns:sodipodi="http://sodipodi.sourceforge.net/DTD/sodipodi-0.dtd"
   xmlns:inkscape="http://www.inkscape.org/namespaces/inkscape"
   preserveAspectRatio="xMinYMin meet"
   viewBox="0 0 1082.8572 687.14288"
   width="1082.8572"
   height="687.14288"
   type="image/svg+xml"
   id="svg2"
   version="1.1"
   inkscape:version="0.48.5 r10040"
   sodipodi:docname="karte.svg">
  <defs
     id="defs4">
    <clipPath
       clipPathUnits="userSpaceOnUse"
       id="clipPath3017">
      <rect
         style="fill:#999999;fill-opacity:1;stroke:#ff0000;stroke-width:0;stroke-linecap:round;stroke-linejoin:round;stroke-miterlimit:4;stroke-opacity:1;stroke-dasharray:none;stroke-dashoffset:0"
         id="rect3019"
         width="1082.8572"
         height="687.14288"
         x="-228.57143"
         y="219.50504" />
    </clipPath>
  </defs>
  <sodipodi:namedview
     id="base"
     pagecolor="#ffffff"
     bordercolor="#666666"
     borderopacity="1.0"
     inkscape:pageopacity="0.0"
     inkscape:pageshadow="2"
     inkscape:zoom="1"
     inkscape:cx="656.73892"
     inkscape:cy="353.36908"
     inkscape:document-units="px"
     inkscape:current-layer="layer1"
     showgrid="false"
     inkscape:window-width="1920"
     inkscape:window-height="1036"
     inkscape:window-x="0"
     inkscape:window-y="44"
     inkscape:window-maximized="0"
     inkscape:object-nodes="true"
     fit-margin-top="0"
     fit-margin-left="0"
     fit-margin-right="0"
     fit-margin-bottom="0" />
  <metadata
     id="metadata7">
    <rdf:RDF>
      <cc:Work
         rdf:about="">
        <dc:format>image/svg+xml</dc:format>
        <dc:type
           rdf:resource="http://purl.org/dc/dcmitype/StillImage" />
        <dc:title></dc:title>
      </cc:Work>
    </rdf:RDF>
  </metadata>
  <g
     inkscape:label="Layer 1"
     inkscape:groupmode="layer"
     id="layer1"
     transform="translate(228.57143,-219.50504)">
    <image
       y="191.07646"
       x="-339.71429"
       id="image3012"
       xlink:href="karte.jpg"
       height="734"
       width="1348"
       clip-path="url(#clipPath3017)" />
    <text
       xml:space="preserve"
       style="font-size:40px;font-style:normal;font-weight:normal;line-height:125%;letter-spacing:0px;word-spacing:0px;fill:#000000;fill-opacity:1;stroke:none;font-family:Sans"
       x="48.5"
       y="378.86218"
       id="text3062"
       sodipodi:linespacing="125%"><tspan
         sodipodi:role="line"
         id="tspan3064"
         x="48.5"
         y="378.86218" /></text>
    <a xlink:href="../golm">
      <g
         id="g3894">
        <g
           inkscape:label="Ebene 1"
           id="layer1-6"
           transform="translate(-260.57143,-205.57147)">
          <path
             inkscape:connector-curvature="0"
             style="color:#000000;fill:#ffffff;fill-opacity:1;fill-rule:nonzero;stroke:none;visibility:visible;display:inline;overflow:visible;enable-background:accumulate"
             d="m 248.57115,572.18364 a 28.749996,28.749996 0 0 0 -28.75,28.75 28.749996,28.749996 0 0 0 28.75,28.75 l 0,-57.5 z"
             id="path5983" />
          <circle
             d="m -219.82103,-600.93365 c 0,15.8784 -12.87199,28.75039 -28.7504,28.75039 -15.8784,0 -28.75039,-12.87199 -28.75039,-28.75039 0,-15.87841 12.87199,-28.7504 28.75039,-28.7504 15.87841,0 28.7504,12.87199 28.7504,28.7504 z"
             sodipodi:ry="28.750393"
             sodipodi:rx="28.750393"
             sodipodi:cy="-600.93365"
             sodipodi:cx="-248.57143"
             style="color:#000000;fill:#ffffff;fill-opacity:1;fill-rule:nonzero;stroke:none;visibility:visible;display:inline;overflow:visible;enable-background:accumulate"
             id="path5991"
             cx="-248.57143"
             cy="-600.93365"
             r="28.750393"
             transform="scale(-1,-1)" />
          <path
             inkscape:connector-curvature="0"
             style="color:#000000;fill:#000000;fill-opacity:1;fill-rule:nonzero;stroke:none;visibility:visible;display:inline;overflow:visible;enable-background:accumulate"
             d="m 248.57115,629.68364 a 28.749996,28.749996 0 0 0 28.75,-28.75 28.749996,28.749996 0 0 0 -27.7207,-28.71289 14.375196,14.375196 0 0 1 13.3457,14.33789 14.375196,14.375196 0 0 1 -14.375,14.375 14.375196,14.375196 0 0 0 -14.375,14.375 14.375196,14.375196 0 0 0 14.375,14.375 z"
             id="circle5935" />
          <path
             style="color:#000000;fill:#ffffff;fill-opacity:1;fill-rule:nonzero;stroke:none;visibility:visible;display:inline;overflow:visible;enable-background:accumulate"
             d="m 248.57144,572.18363 0,28.75 a 14.375196,14.375196 0 0 0 14.375,-14.375 14.375196,14.375196 0 0 0 -14.375,-14.375 z"
             id="circle5938-6"
             inkscape:connector-curvature="0" />
          <circle
             d="m -243.7791,-586.55865 c 0,2.64672 -2.1456,4.79232 -4.79233,4.79232 -2.64672,0 -4.79232,-2.1456 -4.79232,-4.79232 0,-2.64673 2.1456,-4.79233 4.79232,-4.79233 2.64673,0 4.79233,2.1456 4.79233,4.79233 z"
             sodipodi:ry="4.7923226"
             sodipodi:rx="4.7923226"
             sodipodi:cy="-586.55865"
             sodipodi:cx="-248.57143"
             style="color:#000000;fill:none;stroke:#000000;stroke-width:3.54330707;stroke-linecap:square;stroke-linejoin:round;stroke-miterlimit:4;stroke-opacity:1;stroke-dasharray:none;stroke-dashoffset:0;visibility:visible;display:inline;overflow:visible;enable-background:accumulate"
             id="path5985"
             cx="-248.57143"
             cy="-586.55865"
             r="4.7923226"
             transform="scale(-1,-1)" />
          <rect
             style="color:#000000;fill:#ffffff;fill-opacity:1;fill-rule:nonzero;stroke:#ffffff;stroke-width:1.77165353;stroke-linecap:square;stroke-linejoin:round;stroke-miterlimit:4;stroke-opacity:1;stroke-dasharray:none;stroke-dashoffset:0;visibility:visible;display:inline;overflow:visible;enable-background:accumulate"
             id="rect5993"
             width="1.7716535"
             height="9.5846481"
             x="-249.45695"
             y="-620.10095"
             ry="0.88582677"
             rx="0.88582677"
             transform="scale(-1,-1)" />
        </g>
        <path
           sodipodi:nodetypes="ccccccc"
           inkscape:connector-curvature="0"
           id="rect3054"
           d="m 42.478445,358.4856 -25.728056,36.87658 25.728056,36.12342 219.000005,0 0,-36.5 0,-36.5 z"
           style="fill:#ffffff;fill-opacity:1;stroke:#0055d4;stroke-width:3;stroke-linecap:round;stroke-linejoin:round;stroke-miterlimit:4;stroke-opacity:1;stroke-dasharray:none;stroke-dashoffset:0" />
        <text
           sodipodi:linespacing="125%"
           id="text3066"
           y="409.89771"
           x="60.970566"
           style="font-size:40px;font-style:normal;font-weight:normal;line-height:125%;letter-spacing:0px;word-spacing:0px;fill:#000000;fill-opacity:1;stroke:none;font-family:Sans"
           xml:space="preserve"><tspan
             y="409.89771"
             x="60.970566"
             id="tspan3068"
             sodipodi:role="line">SFB1294</tspan></text>
      </g>
    </a>
    <a xlink:href="../hpi">
      <g
         id="g3882">
        <path
           style="fill:#ffffff;fill-opacity:1;stroke:#0055d4;stroke-width:3;stroke-linecap:round;stroke-linejoin:round;stroke-miterlimit:4;stroke-opacity:1;stroke-dasharray:none;stroke-dashoffset:0"
           d="m 633.52154,483.4856 25.72806,36.87658 -25.72806,36.12342 -115,0 0,-36.5 0,-36.5 z"
           id="path3070"
           inkscape:connector-curvature="0"
           sodipodi:nodetypes="ccccccc" />
        <g
           transform="translate(439.42857,-80.57147)"
           id="g3040"
           inkscape:label="Ebene 1">
          <path
             id="path3042"
             d="m 248.57115,572.18364 a 28.749996,28.749996 0 0 0 -28.75,28.75 28.749996,28.749996 0 0 0 28.75,28.75 l 0,-57.5 z"
             style="color:#000000;fill:#ffffff;fill-opacity:1;fill-rule:nonzero;stroke:none;visibility:visible;display:inline;overflow:visible;enable-background:accumulate"
             inkscape:connector-curvature="0" />
          <circle
             transform="scale(-1,-1)"
             r="28.750393"
             cy="-600.93365"
             cx="-248.57143"
             id="circle3044"
             style="color:#000000;fill:#ffffff;fill-opacity:1;fill-rule:nonzero;stroke:none;visibility:visible;display:inline;overflow:visible;enable-background:accumulate"
             sodipodi:cx="-248.57143"
             sodipodi:cy="-600.93365"
             sodipodi:rx="28.750393"
             sodipodi:ry="28.750393"
             d="m -219.82103,-600.93365 c 0,15.8784 -12.87199,28.75039 -28.7504,28.75039 -15.8784,0 -28.75039,-12.87199 -28.75039,-28.75039 0,-15.87841 12.87199,-28.7504 28.75039,-28.7504 15.87841,0 28.7504,12.87199 28.7504,28.7504 z" />
          <path
             id="path3046"
             d="m 248.57115,629.68364 a 28.749996,28.749996 0 0 0 28.75,-28.75 28.749996,28.749996 0 0 0 -27.7207,-28.71289 14.375196,14.375196 0 0 1 13.3457,14.33789 14.375196,14.375196 0 0 1 -14.375,14.375 14.375196,14.375196 0 0 0 -14.375,14.375 14.375196,14.375196 0 0 0 14.375,14.375 z"
             style="color:#000000;fill:#000000;fill-opacity:1;fill-rule:nonzero;stroke:none;visibility:visible;display:inline;overflow:visible;enable-background:accumulate"
             inkscape:connector-curvature="0" />
          <path
             inkscape:connector-curvature="0"
             id="path3048"
             d="m 248.57144,572.18363 0,28.75 a 14.375196,14.375196 0 0 0 14.375,-14.375 14.375196,14.375196 0 0 0 -14.375,-14.375 z"
             style="color:#000000;fill:#ffffff;fill-opacity:1;fill-rule:nonzero;stroke:none;visibility:visible;display:inline;overflow:visible;enable-background:accumulate" />
          <circle
             transform="scale(-1,-1)"
             r="4.7923226"
             cy="-586.55865"
             cx="-248.57143"
             id="circle3050"
             style="color:#000000;fill:none;stroke:#000000;stroke-width:3.54330707;stroke-linecap:square;stroke-linejoin:round;stroke-miterlimit:4;stroke-opacity:1;stroke-dasharray:none;stroke-dashoffset:0;visibility:visible;display:inline;overflow:visible;enable-background:accumulate"
             sodipodi:cx="-248.57143"
             sodipodi:cy="-586.55865"
             sodipodi:rx="4.7923226"
             sodipodi:ry="4.7923226"
             d="m -243.7791,-586.55865 c 0,2.64672 -2.1456,4.79232 -4.79233,4.79232 -2.64672,0 -4.79232,-2.1456 -4.79232,-4.79232 0,-2.64673 2.1456,-4.79233 4.79232,-4.79233 2.64673,0 4.79233,2.1456 4.79233,4.79233 z" />
          <rect
             transform="scale(-1,-1)"
             rx="0.88582677"
             ry="0.88582677"
             y="-620.10095"
             x="-249.45695"
             height="9.5846481"
             width="1.7716535"
             id="rect3052"
             style="color:#000000;fill:#ffffff;fill-opacity:1;fill-rule:nonzero;stroke:#ffffff;stroke-width:1.77165353;stroke-linecap:square;stroke-linejoin:round;stroke-miterlimit:4;stroke-opacity:1;stroke-dasharray:none;stroke-dashoffset:0;visibility:visible;display:inline;overflow:visible;enable-background:accumulate" />
        </g>
        <text
           sodipodi:linespacing="125%"
           id="text3066-7"
           y="534.56567"
           x="543.21362"
           style="font-size:40px;font-style:normal;font-weight:normal;line-height:125%;letter-spacing:0px;word-spacing:0px;fill:#000000;fill-opacity:1;stroke:none;font-family:Sans"
           xml:space="preserve"><tspan
             y="534.56567"
             x="543.21362"
             id="tspan3068-5"
             sodipodi:role="line">HPI</tspan></text>
      </g>
    </a>
    <a xlink:href="https://www.openstreetmap.org/copyright">
      <g id="copyright">
        <rect
           style="fill:#ffffff;fill-opacity:0.73891625;stroke:#0055d4;stroke-width:0;stroke-linecap:round;stroke-linejoin:round;stroke-miterlimit:4;stroke-opacity:1;stroke-dasharray:none;stroke-dashoffset:0"
           id="rect3876"
           width="166.1701"
           height="22.98097"
           x="688.11572"
           y="883.66699" />
        <text
           xml:space="preserve"
           style="font-size:10px;font-style:normal;font-weight:normal;line-height:125%;letter-spacing:0px;word-spacing:0px;fill:#000000;fill-opacity:1;stroke:none;font-family:Sans"
           x="693.02209"
           y="897.91626"
           id="text3878"
           sodipodi:linespacing="125%"><tspan
             sodipodi:role="line"
             id="tspan3880"
             x="693.02209"
             y="897.91626">© OpenStreetMap contributors</tspan></text>
      </g>
    </a>
  </g>
</svg>
